<svg xmlns="http://www.w3.org/2000/svg" data-name="Layer 1" viewBox="0 0 400 500">
    <path d="M253.53 114.43a109 109 0 0 0-56.14 15.45 35.65 35.65 0 0 1 16.15 22.47h-.28a25.76 25.76 0 0 1-21.93 26.69 6.63 6.63 0 0 1 3.46-3.78 6.78 6.78 0 0 0-9.74 3.84 24.88 24.88 0 0 1-10.57-3.61 6.67 6.67 0 0 1 5.2-1.89 6.78 6.78 0 0 0-9.9-1.85c-2.18-2.17-4.64-5.13-5.63-8.1a6.74 6.74 0 0 1 7.86 3.27c2.86-5.46-3.22-11.92-8.83-9.11a9.54 9.54 0 0 1 .87-5.3 6.92 6.92 0 0 0 .66-5.83l.38-.76 1.73 5c1.71-3.51 4.55-7.57 1.76-11.33l1.08-1.79 4.26 6.48c.78-3.78 2.53-8.36-1-11.31.18-.26.36-.53.54-.78l3.42 6c1-3.46 2.86-7.54.23-10.73l.51-.62 2.74 5.68c1.11-3.17 3.14-6.86 1.27-10.11.19-.19.38-.36.56-.55l2.18 5.41c1.23-2.89 3.37-6.26 2.15-9.45l.65-.53 1.71 5.19c1.32-2.62 3.55-5.68 2.89-8.74.25-.2.51-.38.78-.56l1.3 5c1.39-2.37 3.69-5.17 3.49-8l1-.56.92 4.86c1.49-2.2 3.88-4.75 4-7.52l1.56-.79 1 4.82c1.38-2.12 3.6-4.59 3.84-7.19l1.77-.87 1.12 4.56c1.26-2.08 3.29-4.49 3.57-7 1-.52 1.89-1.07 2.8-1.63l1.6 4c.92-2.14 2.46-4.6 2.58-7a28.37 28.37 0 0 0 2.29-2.09l2.55 4.18c.66-2.71 2.07-6.12 1-8.86.34-.6.66-1.22.95-1.87l5.17 4c-.43-3.36-.24-7.61-3.43-9.69l.06-.39 6.61-.64c-1.83-1.51-3.81-3.72-6.11-4.49v-2.34l4.53-.59a54.66 54.66 0 0 0-4.89-3.71q-.21-1.55-.51-3.09l2.95-.47c1.22 3.4 1.91.29 1.93-1.79a14.57 14.57 0 0 0-1.78-7.49 19 19 0 0 0-4.88-5.2c-.49-.4-5.21-4.52-4.82-4.9.55-.56 5.29 2.73 6 3.09a28.91 28.91 0 0 0 7.71 2.92 15.18 15.18 0 0 0 6.08 0c.8-.18 3.93-.88 2.95-1.92-.32-.34-2.46-.29-2.94-.39a23.74 23.74 0 0 1-3.49-1.05 35.15 35.15 0 0 1-7-3.54 68.19 68.19 0 0 0-6.61-4.12c-.47-.24-5.4-2.22-5.33-2.54.19-1 7.84 2.48 8.64 2.81a23 23 0 0 0 10.7 1.91c3.53-.28 7.53-1.39 10.08-4 .58-.59 2.11-2.16 2.07-3.08-.07-1.52-1-.58-1.9-.11a22.08 22.08 0 0 1-17.07 1.33c-3.84-1.21-7.43-3-11.35-4q-2-.51-4-.9c-1.17-.23-2.42 0-1.73-1.22s3.45-2.13 4.69-2.69c2.08-.95 4.22-1.81 6.2-2.95 1-.55 3.37-1.82 3.19-3.25-.25-1.88-2.38.34-3.2.81-8.41 5.06-18.29 6.89-27.41 9.92-3.58 1.2-6 4.17-9.2 6a25.34 25.34 0 0 1-6.17 2.6c-1.67.45-3.79.34-5.35 1-3.55 1.56-.49 6 1.1 7.78.52.6 2.83 3.15 3.48 2.41.35-.4-.91-4.05.1-4.18.52-.07 4.42 4.31 5.23 2.74.18-.37-2.37-3.2-1.15-3.64.51-.18 4.18 3.65 4.86 2.31.14-.27-1.1-1.94-1-2.55.14-1.29.38-1 1.45-.94.87.07 7 1.45 6.85 2.36-.07.34-2.78.88-3.21 1a27.41 27.41 0 0 0-4.08 1.88 7.35 7.35 0 0 1-3.09 1.22c-.59 0-2.66-.89-2.9-.72-1.27.85 3 2.09.22 2.53-1.23.2-4.78-2.28-5.29-1.94s.86 3.16 1.1 3.53a5.79 5.79 0 0 0 4.19 2.69c3.53.37 5.07-3.11 7.82-4.6 5.28-2.86 11.77-1.06 17.35-.1.7 1.23 1.34 2.49 1.93 3.78a22.8 22.8 0 0 0-3.5 1v.21c1.12.39 3.21 1.37 4.35.81.14.36.28.71.41 1.06-1.09.33-2.19.57-3.26.94v.22c.95.33 3 1.29 4 1 .11.36.21.71.32 1.06-.94.28-1.89.47-2.81.8V66c1.09.39 2.22.67 3.34 1 .11.46.23.92.32 1.37a23.09 23.09 0 0 0-2.48.71v.22c.92.32 1.85.52 2.78.79.09.54.16 1.08.22 1.62a23.33 23.33 0 0 0-2.49.72v.21a18.65 18.65 0 0 0 2.65.76c0 .52.06 1 .06 1.54-1 .29-1.91.48-2.85.81v.22c.92.32 1.86.52 2.79.79 0 .42-.07.83-.12 1.23a27.36 27.36 0 0 0-3.43 1v.21c1 .36 2.06.54 3.07.88a5.18 5.18 0 0 1-.26 1c-1-.42-3.19.55-4.16.89v.22c1.06.37 2.16.6 3.23.93a8.42 8.42 0 0 1-.6.87c-1.19-.72-3.37.3-4.53.71v.21c.94.34 1.91.52 2.86.82-.24.21-.49.41-.75.62-1.19-.73-3.38.29-4.54.7v.21a19.46 19.46 0 0 0 2.24.65l-.56.35c-1.2-.78-3.41.26-4.59.67v.22c.65.23 1.3.41 2 .58l-.34.17c-1.19-.73-3.38.29-4.54.7v.22c.57.2 1.14.36 1.7.51l-.27.14c-1.14-.57-3.29.42-4.37.8v.21c.46.17.93.31 1.39.44l-.22.1c-1-.38-3.17.59-4.1.92v.21c.36.13.73.24 1.09.35l-.23.11c-1.06-.13-2.81.65-3.79 1v.22l.87.28a28.5 28.5 0 0 1-3.81 1.17v.22l.78.25a24.35 24.35 0 0 1-3.71 1.2v.22l.8.25a20.55 20.55 0 0 1-3.73 1.2v.21c.31.12.63.21 1 .31l-.22.14a13.18 13.18 0 0 0-3.67 1v.21c.42.15.84.28 1.26.4l-.15.12c-1-.35-3.15.62-4 .93v.22c.58.2 1.16.37 1.74.52l-.24.18c-1.16-.64-3.32.36-4.44.75v.22c.79.27 1.57.49 2.35.68l-.4.32c-1.26-1.12-3.54 0-4.88.45v.22c1 .35 2 .53 3 .86l-.69.61c-1.28-1.73-3.64-.58-5.28 0v.21c1 .34 3 1.3 4 1l-1.12 1c-1.26-1.16-3.55 0-4.9.43v.21c1.07.38 2.19.63 3.28 1l-.85.83c-1.07-.46-3.22.52-4.22.87v.21a22 22 0 0 0 2.54.73c-.29.31-.59.62-.88.94a27.65 27.65 0 0 0-3.45 1v.22c.64.22 1.28.4 1.92.57-.39.44-.77.89-1.15 1.35a20.35 20.35 0 0 0-2.55.73v.21c.47.17 1 .31 1.42.45-.42.53-.84 1.08-1.25 1.62-.65.16-1.31.35-2 .58v.21c.36.13.72.24 1.08.35-.44.59-.87 1.21-1.3 1.82q-.78.21-1.56.48v.01l.87.28c-.44.64-.88 1.28-1.32 1.94-.44.13-.89.27-1.34.43v.21l.77.25c-.43.66-.87 1.32-1.29 2-.42.12-.84.25-1.26.4v.21l.75.24c-.4.65-.78 1.32-1.17 2-.46.13-.91.27-1.37.43v.22c.28.1.55.18.83.26l-1 1.9-.22.06c-1-3-1.61-6.51-4.86-7.84.09-.48.18-1 .28-1.44l5.5 3.21c-.81-3.07-1.18-7.08-4.2-8.82.13-.49.27-1 .4-1.46l5.1 3.43c-.59-3-.69-7-3.41-8.92.16-.46.31-.91.46-1.36l5.06 3.27c-.62-2.87-.8-6.64-3.24-8.61.16-.47.32-.94.47-1.41l4.94 3c-.69-2.76-1-6.43-3.31-8.35.15-.59.3-1.19.43-1.78l4.88 2.08c-1-2.46-1.77-5.88-4-7.53 0-.46.06-.93.07-1.4l5.28 1.27c-1.5-2.46-2.92-5.9-5.76-7-.1-.48-.23-1-.36-1.42l5.57-.73c-2.27-1.74-4.81-4.45-7.84-4.52a31.64 31.64 0 0 0-2.72-3.93l4.15-5.08c-2.41.25-5.51.08-7.69 1.27-.49-.46-1-.91-1.53-1.36l3-3.92c-2.17.28-4.67.28-6.74 1.06a9.61 9.61 0 0 1-1.91-1.69l2.44-3.39c-1.82.3-3.65.58-5.46.9a16.69 16.69 0 0 0-6.06-2c-2.51-.41-4.89-1.48-7.36-2.13 5.3-.47 10.6.24 15.65-1.89.93-.39 8-5.17 5.84-5.82-.44-.13-2.27 1-2.74 1.15a22.41 22.41 0 0 1-3.53.85A35.85 35.85 0 0 1 134 55a72.32 72.32 0 0 0-7.79-.24c-.52 0-5.77.81-5.88.49-.33-.93 7.48-1.74 8.27-1.84a24.21 24.21 0 0 0 9.52-3 18.68 18.68 0 0 0 7.29-7.41 9.9 9.9 0 0 0 1.06-4.47c0-1.52-.28-2.28-1.4-1s-1.92 3-3.2 4.35a21.55 21.55 0 0 1-7 4.73c-3.39 1.39-6.87 1.69-10.49 2.33q-2.82.51-5.58 1.29c-1.54.43-3.61 1.62-5.18 1.68s-.46-1.7.2-2.82c1.25-2.09 2.86-4.09 4.25-6.09 1-1.43 2.55-3.42 2.61-5.24 0-.56 0-1.66-.8-1.73s-.93 1.26-1.2 1.82c-1.94 4-5.18 7.53-8 10.9-3.3 3.9-6.76 7.64-10.31 11.31-2.67 2.77-3.36 5.82-5 9.19a28.29 28.29 0 0 1-7.87 9.58c-3.75 3.12.22 5.8 3.44 7 .89.33 4.16 1.45 4.55.44.18-.46-2.84-3-2-3.66a12.47 12.47 0 0 1 2.27.45c.6 0 3.66 0 3.62-.71 0-.42-3.64-1.57-2.81-2.57.29-.35 5.43 1 5.36-.45 0-.2-1.66-1-1.88-1.24-1-1.15-.6-1.18.12-1.84s7.21-2.3 7.47-1.56c.11.34-2 2.16-2.26 2.51a27.62 27.62 0 0 0-2.58 3.68 7.23 7.23 0 0 1-2 2.6c-.49.33-2.75.58-2.87.84-.67 1.38 3.66.3 1.46 2.09-1 .78-5.27.42-5.54 1-.36.74 2.7 2.51 3.14 2.69a5.61 5.61 0 0 0 5.8-.77c1.28-1.09 1.47-2.37 1.84-3.87a11.31 11.31 0 0 1 2.84-5.17c4-4.11 10.13-5.66 15.36-7.61a44 44 0 0 1 4.74 1.47 30.34 30.34 0 0 0-1.72 3.11l.16.15c1-.5 3.2-1.3 3.62-2.46l1 .45c-.51 1-1.13 1.92-1.61 2.93l.16.15c.82-.4 3-1.21 3.47-2.12l1 .51c-.47.85-1 1.65-1.39 2.53l.15.15c1-.5 2-1.11 3-1.68l1.2.75a22.69 22.69 0 0 0-1.22 2.23l.15.15c.87-.42 1.67-.93 2.5-1.41.46.33.9.65 1.33 1a22.42 22.42 0 0 0-1.25 2.27l.16.15a23.06 23.06 0 0 0 2.39-1.35c.39.35.78.7 1.14 1.05-.46.88-1 1.69-1.43 2.59l.16.15c.88-.43 1.68-1 2.53-1.42.28.31.54.62.8.93a27.5 27.5 0 0 0-1.81 3.04l.15.15c1-.47 1.85-1.09 2.81-1.57a6.46 6.46 0 0 1 .53.92c-1 .45-1.86 2.66-2.3 3.58l.16.15c1-.49 1.94-1.11 2.93-1.63a8.68 8.68 0 0 1 .19 1c-1.34.34-2.16 2.6-2.68 3.71l.15.15c.9-.43 1.72-1 2.59-1.45 0 .31-.05.63-.09 1-1.35.32-2.17 2.6-2.69 3.71l.15.15a22.24 22.24 0 0 0 2-1.13l-.15.64c-1.4.3-2.22 2.6-2.76 3.73l.15.16c.62-.3 1.21-.63 1.79-1l-.12.37c-1.35.32-2.17 2.6-2.7 3.71l.15.15c.55-.26 1.07-.55 1.57-.84l-.09.29c-1.21.4-2 2.63-2.51 3.66l.15.15c.44-.21.87-.44 1.29-.68l-.08.23c-1 .46-1.82 2.66-2.24 3.56l.15.15c.35-.17.68-.35 1-.53a2.25 2.25 0 0 1-.08.24c-.84.66-1.52 2.45-2 3.39l.16.15c.28-.13.54-.28.81-.42a28.3 28.3 0 0 1-1.85 3.53l.15.15c.25-.12.49-.25.73-.38a23.77 23.77 0 0 1-1.76 3.49l.15.15c.26-.12.5-.26.74-.39a20.08 20.08 0 0 1-1.77 3.49l.15.16.89-.47a2.38 2.38 0 0 0-.05.26 13.36 13.36 0 0 0-1.88 3.31l.16.15c.4-.19.79-.4 1.17-.61v.19c-.94.46-1.77 2.68-2.18 3.53l.15.15c.56-.27 1.09-.56 1.6-.86v.28c-1.27.38-2.08 2.62-2.59 3.69l.15.15a21 21 0 0 0 2.14-1.19l-.06.52c-1.68.1-2.5 2.49-3.11 3.77l.15.15c1-.46 1.81-1.07 2.76-1.54 0 .3 0 .61-.05.92-2.15-.31-3 2.16-3.72 3.75l.15.15c.92-.44 3-1.21 3.5-2.18v1.53c-1.71.08-2.54 2.48-3.16 3.78l.16.15c1-.5 2-1.11 3-1.67v1.2c-1.09.43-1.91 2.65-2.36 3.6l.15.16a25.36 25.36 0 0 0 2.3-1.29c0 .42 0 .85.06 1.28a25.9 25.9 0 0 0-1.74 3.14l.16.15c.6-.29 1.18-.62 1.74-1 0 .59.1 1.18.16 1.77a20 20 0 0 0-1.28 2.32l.15.15c.45-.21.89-.45 1.32-.69.08.67.17 1.35.27 2-.35.58-.67 1.17-1 1.8l.15.15c.35-.17.68-.34 1-.52.11.73.25 1.47.38 2.2-.13.22-.25.44-.36.67-2.34-1-4.58-2.17-7.18-1.17-.18-.21-.35-.44-.53-.65l5.19-1.72c-2.62-1.32-5.68-3.54-8.74-2.87-.2-.26-.39-.52-.56-.78l5-1.31c-2.37-1.39-5.17-3.69-8-3.48l-.56-1 4.85-.93c-2.2-1.49-4.75-3.87-7.52-4-.27-.52-.53-1-.79-1.56l4.81-1c-2.12-1.38-4.59-3.59-7.19-3.83l-.87-1.77 4.55-1.13c-2.08-1.25-4.49-3.28-7-3.56-.52-1-1.07-1.89-1.63-2.79l4-1.61c-2.14-.92-4.61-2.46-7-2.57a28.39 28.39 0 0 0-2.09-2.28l4.18-2.56c-2.72-.65-6.13-2.07-8.86-1-.6-.34-1.22-.65-1.87-.94l4-5.17c-3.35.42-7.58.25-9.66 3.41l-.43-.08-.64-6.56c-1.47 1.79-3.58 3.69-4.41 5.89-.82-.06-1.64-.08-2.46-.08l-.55-4.21c-1.12 1.46-2.28 2.91-3.37 4.39-1 .09-1.92.21-2.88.37.49-.75 3.43-8 1.31-6.83-.83.46-1.84 2.47-2.61 3.22a29.83 29.83 0 0 1-4.21 3.38c-2.87 1.94-6.07 3.14-9 4.88-.65.38-6.48 4.7-6.72 4.49-.74-.65 5.63-5.23 6.27-5.7a24.62 24.62 0 0 0 6.58-6.95 20.1 20.1 0 0 0 2.82-8.5 10.77 10.77 0 0 0-.64-5c-.37-.93-1.43-3.57-2.36-2-.26.44 0 2 0 2.57a18.31 18.31 0 0 1-.53 3.19 21.18 21.18 0 0 1-3.52 7.39c-2.27 3.09-5.3 5.14-8.2 7.56q-2.25 2-4.25 4.04c-1.13 1.14-2.33 3.2-3.67 4s-1.24-1.3-1.22-2.55c0-2.48.46-5 .65-7.42.13-1.72.52-4.24-.34-5.85-.26-.49-.8-1.44-1.55-1.1s-.21 1.28-.16 1.86c.39 4.53-.72 9.34-1.54 13.76-.91 4.88-2 9.73-3.23 14.53-1.08 4.17 0 7.58.17 11.74a28.47 28.47 0 0 1-2.13 11.34c-1.71 4.56 3.07 4.93 6.46 4.37.93-.16 4.33-.8 4.17-1.87-.08-.49-4-1.22-3.57-2.18a12.78 12.78 0 0 1 2.19-.74c.54-.26 3.16-1.85 2.8-2.41-.23-.35-4 .44-3.72-.83.09-.53 5.24-1.79 4.43-3-.17-.25-2.24 0-2.73-.38-1-.78-.68-.85-.08-1.73.49-.72 4.76-5.36 5.47-4.75.26.23-.63 2.84-.72 3.3a26.73 26.73 0 0 0-.41 4.47 7.34 7.34 0 0 1-.5 3.28c-.26.53-2.09 1.86-2.07 2.15.1 1.52 3.92-1.67 2.11 1.37-.44.74-4.16 2.9-4.13 3.31.1 1.48 5.34.52 5.94.23a5.3 5.3 0 0 0 3-5.88c-1-4.42-1.08-7.57 1.29-11.72 2.8-4.88 7.15-9.17 10.75-13.48.07.26.15.51.24.76h.1a10.47 10.47 0 0 1 2.16-3.82 20.78 20.78 0 0 0 .68 2.35h.22c.39-1.12 1.37-3.23.78-4.37l.09-.11 1-.32c.31 1.11.57 2.22 1 3.3h.22c.32-.92 1.22-2.85 1-3.88l1.22-.25c.32 1 .5 2 .84 2.94h.22c.37-1.07.61-2.17.93-3.25.46-.06.92-.12 1.37-.15.31 1 .49 1.94.83 2.89h.22c.34-1 .51-2 .84-3H87c.34 1 .53 2.07.89 3.09H88c.34-1 .52-2 .83-2.94l1.17.17a20.74 20.74 0 0 0 1 3.53h.22c.35-1 .54-2.07.88-3.08a5.11 5.11 0 0 1 1 .27c-.41 1 .56 3.19.9 4.15h.21c.38-1.06.6-2.15.93-3.23a10.45 10.45 0 0 1 .87.61c-.71 1.18.31 3.37.72 4.52H97c.33-.94.52-1.91.81-2.86.21.24.42.49.62.75-.72 1.19.3 3.38.71 4.54h.22a21.6 21.6 0 0 0 .64-2.24c.12.18.24.36.35.56-.78 1.2.26 3.41.68 4.59h.22q.33-1 .57-1.95l.18.34c-.73 1.19.29 3.38.7 4.54h.22c.2-.57.36-1.14.51-1.71l.14.27c-.57 1.14.42 3.3.8 4.37h.22c.16-.46.31-.93.43-1.39l.11.22c-.38 1 .59 3.17.92 4.1h.21c.13-.37.24-.73.35-1.09 0 .07.07.15.11.23-.13 1.06.65 2.81 1 3.79h.21c.11-.29.19-.59.28-.88a28.54 28.54 0 0 1 1.18 3.81h.22c.09-.26.16-.52.24-.78a23.66 23.66 0 0 1 1.21 3.71h.22c.09-.26.17-.53.25-.8a21.39 21.39 0 0 1 1.21 3.73h.21c.11-.31.21-.63.3-1l.15.21a13.18 13.18 0 0 0 1 3.67h.21c.15-.42.28-.84.4-1.26l.12.16c-.35 1 .63 3.15.94 4h.22c.2-.58.37-1.16.52-1.74.06.07.11.15.17.23-.64 1.16.37 3.32.76 4.44h.22a23.76 23.76 0 0 0 .67-2.35l.33.4c-1.12 1.26 0 3.54.45 4.88h.22c.35-1 .53-2 .86-3 .2.23.41.45.62.68-1.73 1.29-.57 3.65 0 5.29h.21c.34-1 1.29-3 .94-4 .35.38.69.75 1.05 1.12-1.16 1.26-.05 3.55.43 4.91h.21c.38-1.08.63-2.19.95-3.29l.83.85c-.46 1.07.52 3.22.87 4.22h.22a22 22 0 0 0 .72-2.54c.32.29.62.59.94.87a22 22 0 0 1 .86 5.46c-.06 1.87 0 3.74.1 5.6a72.85 72.85 0 0 0 1.32 10 47.37 47.37 0 0 0 4.37 13.24 34.72 34.72 0 0 0 35.11 17.69 31.37 31.37 0 0 0-.45 26.66c-16-6.48-30-17.33-41.22-30.33a40 40 0 0 1-3.88-4.75 18.06 18.06 0 0 1-1.65-4.87c-.95-3.57-1.72-7.19-2.39-10.83-.75-4.07-1.39-8.16-1.85-12.28 3.68-7.49-4.08-15.76-11.79-12.87a9.53 9.53 0 0 1 5.45 12.19h-.19c-2.31-8.07-12.43-11.53-19.12-6.32a7.91 7.91 0 0 1 6.66 9.69c-5.9-3.41-13.29-3.82-18.56 1-4.53 4.11-6.33 10.53-6.62 16.46 1.54-6.82 6.51-13.22 14.14-12.81 8.24.45 14.68 7.5 18.4 14.25s5.69 15.26 4.41 23.1c-.89 5.44-4.21 12.93-10.44 14 11 .41 16.1-11 16.46-20.34l5.62 1.31c2.14.5 3.27 2 5.32 2.79C140.28 250 156.3 264.26 175.31 273a11.3 11.3 0 0 1-8.09 5.22 11.36 11.36 0 0 0 17.39-4.56c1.08-2.55.72-5.23 1.21-7.89 1.92-10.47 10-19.74 20.38-22.57a29.36 29.36 0 0 0-.33 27.67 30.67 30.67 0 0 0 7.65-3.09 18.23 18.23 0 0 0 1 2.47c-.2 2.64 0 5.59-.61 8.19-.56 2.45-1.7 4.92-2.51 7.31-.26.76-2.07 4.62-1.41 5.09s2.84-.7 3.37-.91c-1.16 1.49-1.6 3.4-2.58 5a8.09 8.09 0 0 1-4.53 3.33 53.36 53.36 0 0 1-8.28 2.6 73.35 73.35 0 0 1-17.42 1.44 112 112 0 0 1-22-3.14c-2.11-.48-4.8-.82-6.68-1.79-3.29-1.7-6.33-5.92-8.36-8.92 2.49-9.52-7.94-17.71-16.65-13.41a11.86 11.86 0 0 1 6.55 12.16c-3.87-7.64-15.44-6.83-18.21 1.27a10 10 0 0 1 14.52 5.71 18.47 18.47 0 0 0-9.52 8.62c8.05-5.76 19.39-2.09 25.74 4.34 7.29 7.38 10.37 19.45 5.44 28.94 8.64-5.51 11.25-17.71 6.17-28.43 10.74 4.46 22 5.05 33.4 4.6 4.35-.17 8.71-.59 13-1.11 2.83-.33 6-1.05 8.85-1 3.11.11 5.52 2.55 8.5 3.19 2.44-1 4.92-1.86 7-3.59 2.4 1.55 5.34 3.77 5.71 6.84 3.32-3.71 1.89-10.69.77-15a34.36 34.36 0 0 0 3.75-22.07 18.73 18.73 0 0 0 4-2.22 42.54 42.54 0 0 1 5.47 33.64c-34.06 31.78-84.21 42.09-128.19 26.91a129.85 129.85 0 0 1-34.41-18c.31-1.11-3.17-2.94-3.84-3.37a25.31 25.31 0 0 1-5.6-4.25q-3.7-3.29-7.15-6.84c.67-.55 2.41-1.89 2.27-2.88-.12-.78-1.67-1.59-2.24-2-2.42-1.71-5.21-3-7.17-5.29a12.67 12.67 0 0 1-1 1 132.32 132.32 0 0 1-14.56-22.47 28.27 28.27 0 0 0 6.71 3.64 12.05 12.05 0 0 1 1.18 8.27 12.07 12.07 0 0 0 7.57-6.54 28.6 28.6 0 0 0 10.77-1.6 12.12 12.12 0 0 1 .78 6.35 12.12 12.12 0 0 0 7.88-11.3 28 28 0 0 0 3.66-3.65 12.06 12.06 0 0 1 7.67 5.84A12.15 12.15 0 0 0 90 259.16c.19-.61.35-1.24.51-1.87a12 12 0 0 1 10.58 1.07 12.13 12.13 0 0 0-10.24-12.63 28.16 28.16 0 0 0-.89-3.65 12 12 0 0 1 10.89-2.44A12.14 12.14 0 0 0 85 231.19a12 12 0 0 1 8.13-6.43 12.14 12.14 0 0 0-18.18.14 27.12 27.12 0 0 0-3.41-1.34 11.94 11.94 0 0 1 5.23-6 12.12 12.12 0 0 0-17.11 4.83 28.47 28.47 0 0 0-6.72 1.61 12.12 12.12 0 0 1-.2-7.42 12.13 12.13 0 0 0-9.38 13.38 28.79 28.79 0 0 0-2.56 2.73 12.3 12.3 0 0 1 .48-3.65 12.09 12.09 0 0 0-7.93 5.81A135.27 135.27 0 0 1 31.63 217h-1.47a137 137 0 0 0 24.72 82 12.16 12.16 0 0 1-5.49-.25 12.11 12.11 0 0 0 12.47 9.36q3.42 4.06 7.14 7.89a12 12 0 0 1-5.31-.28 12.12 12.12 0 0 0 14.65 9 139.11 139.11 0 0 0 14.83 11 12 12 0 0 1-7.79.42 12.13 12.13 0 0 0 19.62 6.48q3.75 1.92 7.61 3.62a12 12 0 0 1-9 2.91c3.72 8.71 16.05 9.73 21.17 1.78q5.17 1.71 10.48 3a12 12 0 0 1-9.53 6.55 12.12 12.12 0 0 0 12.89 4.89c3.72-.94 8.67-4.73 8.77-9 4 .62 8.06 1.08 12.12 1.35a12 12 0 0 1-8.16 8.58 12 12 0 0 0 18.48-1.95c1-1.49 2.49-4.48 2-6.32q6.6-.14 13.18-.87a12 12 0 0 1-6.12 9.55c8.38 5.31 19.45-1.67 18.37-11.48q4.36-.87 8.65-2a12 12 0 0 1-3.64 12c9.56 3.43 18.88-6.23 15.29-15.62 3.18-1.16 6.32-2.42 9.41-3.81a12 12 0 0 1-2.36 10.41 12.14 12.14 0 0 0 13.51-16q3.7-2.07 7.31-4.35a12 12 0 0 1-1.45 9.51 12.13 12.13 0 0 0 11.81-16.77c1.86-1.43 3.69-2.9 5.47-4.42a12 12 0 0 1-.81 7.54 12.13 12.13 0 0 0 10.35-16.41q2.24-2.28 4.38-4.65a12.12 12.12 0 0 1-.54 3.71 12.12 12.12 0 0 0 9.36-14.6c1.3-1.76 2.56-3.54 3.78-5.36v.23a12.09 12.09 0 0 0 6.71-11.29c1.11-2 2.18-4.08 3.19-6.16 11.39-.78 11.53 11.67 8.19 19.27-3.94 9-12.87 18-22.88 19.56 5.57 1.6 9.17 6.2 8.35 12.12-.63 4.61-3.41 8.76-6.53 12.09-7.7 8.19-20.58 14.43-32 12.38a9.77 9.77 0 0 1 .19 5.74 380.26 380.26 0 0 1-66.8 11.94v.4a302.68 302.68 0 0 0 33.24-2c10.33-1.16 20.92-2.44 30.91-5.43a21.07 21.07 0 0 1-3.85 3.57 108.88 108.88 0 0 0 23.8-203.21 25.1 25.1 0 0 1-15.57 30.14c-.67-2.22-1.15-4.9.05-7-3.88.82-6.45 5.27-8.09 8.49a24.44 24.44 0 0 1-5.39-.51c.42-2 1.21-4.27 3-5.5-3.35-.86-7 1.3-9.69 3.09a24.91 24.91 0 0 1-4.87-3.38c1.35-2.24 3.21-4.84 6-5.36-3-2.33-7.66-1.61-11.05-.9a25.38 25.38 0 0 1-1.39-2.69c-3.64-2.69-1.1-5.74 2-7.23 3.88-1.87 8.43-2.46 12.67-2.67-1.79-6.14.06-12.78 6.17-15.54 5.78-2.6 12.78-1.34 18.41 1 2.58-9 11.46-11.15 19.2-7.32 9 4.43 15.21 14.07 17.32 23.62 5.8-9.78 16.67-7.86 23 .08 7.14 8.93 9.47 23 5 33.55 9.39-1.27 15.89 9.92 18.65 17.22 3.93 10.42 5.39 24.72-.93 34.56a13.25 13.25 0 0 1 4.16 9.66c-.21 4-2.49 8.31-4 11.9a132.59 132.59 0 0 1-12.43 23.79l.31.26c7.22-7.81 11.82-17 16.87-26.2a109 109 0 0 0 10.54-27.37 109.59 109.59 0 0 0-106.71-134.88ZM103.29 66.56c-.46.47-1.47 2-2.17 2-1.73.24-.33-1.87 0-2.51s1-2.73 1.67-2.91c1.6-.37 1.21 2.79.5 3.42Zm-54.7 73.55c-.17.64-.31 2.43-.87 2.86-1.38 1.07-1.21-1.46-1.24-2.18s-.49-2.87 0-3.35c1.19-1.17 2.4 1.78 2.11 2.67Zm103.11 3.6c-.09.19-.17.39-.26.58a6.2 6.2 0 0 0-2.34-.83v-1.41l1.72.72-.73.23v.22c.54.19 1.08.35 1.61.49Zm-12.36 23 .12.45-.38-.32Zm94.45-101.82c-1.16-.84-2.29-1.74-3.5-2.51-.46-1.68-1-3.35-1.62-5 2.33 1.78 4.05 4.84 5.12 7.51Zm-30.41-26.82a3.36 3.36 0 0 1-2.45 2.33c-.62.21-3.06 1.16-2.84-.29.11-.7 2-1.48 2.5-1.79.2-.13 3.76-2.32 2.79-.25Zm-49.25 99.06-.47.15v.21c.34.12.68.22 1 .33-.32.59-.64 1.16-.95 1.76l-.41.11a6.11 6.11 0 0 0-4.05-3.5c0-.48.09-.94.13-1.42ZM138 160.75c.08.41.18.82.26 1.23v.09a6.22 6.22 0 0 0-3.55.81c-.19-.18-.37-.37-.55-.56Zm-93.2 73.43c.46.84 2.46 4 3.65 4 .84 0 1.52-1.12 2-1.71 1.94-2.54 3.28-5.58 5.75-7.66a12.44 12.44 0 0 1-1.22-1.3 24.73 24.73 0 0 1 3.46-.9c-.09.87-.37 3.11.45 3.7.64.47 2.3-.06 3-.19 2.91-.52 5.8-1.59 8.8-1.39v-1.25c.75.26 1.49.55 2.21.87-.66 1.68-1.46 3.26.52 3.87s4.21.47 6.2.62c.37.35.74.72 1.09 1.09-1.34 1.34-2 1.88-.58 3.22a31 31 0 0 0 5 3.27 24.07 24.07 0 0 1 1.77 5.38c-2 .38-6.26 1.46-4.93 4 1.16 2.2 3.37 4 4.89 5.94-.09.45-.2.89-.32 1.33-2.11-.8-6.94-2.17-6.77 1.17.15 2.89 1.34 5.66 1.54 8.56-.36.4-.73.8-1.11 1.19-.83-2-4.6-8-6.84-5.17s-2.77 6.64-5.22 9.37a12.3 12.3 0 0 1 2 1.81 24.62 24.62 0 0 1-7.53 1.11 12.14 12.14 0 0 0-1.22-6.41c-.65-1.3-2.92-4.92-4.65-5-2 0-4.6 6.86-5.69 8.34a24.7 24.7 0 0 1-12.66-22.48c2.24-2.67 3.6-6.07 6.3-8.35a12 12 0 0 1-2.63-3.51 23.7 23.7 0 0 1 2.72-3.52Z"/><path d="m361.51 163.72-2.62-28.86-6.53 1.6-5.36-22.8-3.58 4.94-12.57-28-2.78 5.58L313 72.46v7l-13.3-16.63.3 5.57-15.72-13.91-2.84 1.18-14.35-13.61-1.9 5-8.45-8.06 2 5.28-8.43 3.39L263.27 49l-6.53 3.4 6.67 1.34a9.63 9.63 0 0 0-8.31 8.07 9.57 9.57 0 0 1 2.23-.49 23.19 23.19 0 0 0-1.89 2.07 9.67 9.67 0 0 0-9.69 8.15 9.58 9.58 0 0 1 5.53-.29 22.92 22.92 0 0 0-1 5.72 9.68 9.68 0 0 0-2.59 13.59 9.65 9.65 0 0 1 4.17-4.26 22.44 22.44 0 0 0 1.3 2.76 9.66 9.66 0 0 0 1.06 14.17 9.55 9.55 0 0 1 4.78-6.78 9.66 9.66 0 0 0 7.51 12.21 9.53 9.53 0 0 1 1.19-8.44 21.82 21.82 0 0 0 3.26.61 9.66 9.66 0 0 0 10.45 7.11 9.55 9.55 0 0 1-1.48-7.91c.65-.19 1.28-.4 1.9-.65a9.65 9.65 0 0 0 12.2.79 9.57 9.57 0 0 1-4.87-5.4 23.28 23.28 0 0 0 3.1-3.55 9.66 9.66 0 0 0 8.07-6.78 9.7 9.7 0 0 1-4.7-.21 23 23 0 0 0 .72-9 9.35 9.35 0 0 0 2.14-1.72l13.7 8.64h-3.7l16 14.57h-4.25l22.1 24.69-6.38 1.11 14.88 15.94-5.95-.65 13.59 26.67-4.67-2.47 12.75 38.21v-39.58Zm-67.32-95.88 3.8 1.65a9.42 9.42 0 0 1-3.39-.7c-.13-.31-.26-.64-.41-.95ZM270 55h-.35l-.29-.17Zm22.44 21.7a19.11 19.11 0 0 1-.47 5.53 9.1 9.1 0 0 1-1.22-1.23c-1.92 2-5.61 2.54-7.23 4.63-.83 1.08-.83 1 .28 2.33a9.66 9.66 0 0 0 3.78 2.68c-.33.37-.67.72-1 1.06-2.09-.11-4.21-.84-6.31-.76-2.53.09-1.5 3.3-.8 5-.43.15-.87.29-1.31.4-1.33-1-3.08-3-4.69-3.38-1.85-.46-2.42 2.21-2.69 3.81a18.81 18.81 0 0 1-4.89-1.39c-1.24-1.74-2.56-5-4.63-2.83-.45-.37-.89-.77-1.3-1.18-.16-1.22 0-3.44-.77-4.46s-1.37-.7-2.67-.17c-.26-.51-.51-1-.73-1.56h.55c-.31-2.38.41-4.73.68-7.07s.07-2.93-2.55-2.63a18.44 18.44 0 0 1 .48-2.46 8.67 8.67 0 0 1 .74.62c1.57-2.11 4-3.27 5.9-5 .43-.4 1.21-.91 1.18-1.56 0-.84-2.39-2.23-3-2.54a18.8 18.8 0 0 1 2.74-2.32A9.32 9.32 0 0 1 265 63.9c1.53-2 3.87-3.31 5.8-4.94 3.52-.47 6.59 1.61 9.77 3 3.65 1.58 6.77 2.28 9 5.75-1.18.91-6 3-6 4.67 0 1.14 2.74 2.78 3.63 3.23a9.71 9.71 0 0 0 5.3 1s-.06.04-.06.09Z"/>
    <style>
        path {
            fill: none;
            stroke: #000;
            stroke-width: 5px;
        }
        @media (prefers-color-scheme: dark) {
            path {
                stroke: #fff;
            }
        }
    </style>
</svg>
