<svg
  xmlns="http://www.w3.org/2000/svg"
  x="0px"
  y="0px"
  width="100"
  height="100"
  viewBox="0 0 50 50"
>
  <path
    d="M 22 0 C 20.851563 0 20.074219 1.042969 19.71875 2.03125 C 19.449219 2.777344 19.183594 3.929688 18.96875 5.15625 C 18.21875 3.421875 16.917969 2 14.21875 1.4375 C 13.890625 1.371094 13.585938 1.3125 13.28125 1.3125 C 11.75 1.3125 10.792969 2.191406 10.5625 3 C 10.214844 4.207031 11.585938 4.703125 12.25 4.9375 C 12.34375 4.972656 12.433594 4.984375 12.46875 5 C 14.230469 5.933594 14.507813 6.3125 14.6875 7.375 C 13.921875 7.140625 13.199219 7.097656 12.5625 7.0625 C 11.199219 6.980469 10.488281 6.914063 9.84375 5.28125 C 9.792969 5.160156 9.769531 5.03125 9.71875 4.875 C 9.484375 4.113281 9.09375 2.8125 7.90625 2.8125 C 7.855469 2.8125 7.738281 2.835938 7.6875 2.84375 C 7.320313 2.902344 6.792969 3.109375 6.40625 3.75 C 5.730469 4.871094 5.84375 6.847656 6.1875 7.84375 C 7.136719 10.601563 8.816406 11.59375 10.40625 12.03125 C 9.855469 12.355469 9.355469 12.746094 8.96875 13.21875 C 8.015625 14.382813 7.671875 15.910156 8 17.53125 C 8.222656 18.636719 10.28125 29.503906 10.28125 31.625 C 10.28125 32.785156 8.546875 33 8.53125 33 C 7.15625 33 6.851563 32.460938 6.75 32.28125 C 6.5 31.832031 6.5 31.207031 6.5 30.84375 C 6.5 29.585938 6.894531 28.050781 7.28125 26.5625 C 7.648438 25.136719 8 23.792969 8 22.6875 C 8 17.625 4.894531 14.773438 3.40625 13.40625 C 2.691406 12.75 1.503906 12.789063 0.75 13.46875 C 0.0859375 14.070313 -0.113281 15.285156 0.1875 16.71875 C 0.59375 18.65625 1.71875 20.195313 3.28125 20.9375 C 3.339844 21.328125 3.375 21.742188 3.375 22.15625 C 3.375 23.105469 2.882813 25.015625 2.4375 26.71875 C 1.929688 28.65625 1.4375 30.480469 1.4375 31.625 C 1.4375 36.648438 5.671875 39 8.53125 39 C 10.679688 39 12.863281 38.023438 14.25 36.46875 C 15.519531 35.042969 16.074219 33.238281 15.84375 31.25 C 15.609375 29.21875 15.109375 25.960938 14.65625 23.09375 C 14.578125 22.976563 14.507813 22.855469 14.4375 22.75 C 13.625 21.546875 12.535156 19.894531 13.3125 17.5625 C 13.8125 16.066406 15.15625 15.1875 16.90625 15.1875 C 17.128906 15.1875 17.375 15.199219 17.6875 15.21875 C 17.910156 15.234375 18.160156 15.25 18.4375 15.25 C 19.476563 15.25 20.914063 14.992188 22.875 13.03125 C 23.335938 12.570313 23.925781 12.28125 24.5625 12.1875 C 24.015625 9.609375 23.722656 6.085938 24 2.40625 C 24.03125 1.976563 24.089844 1.195313 23.53125 0.59375 C 23.171875 0.203125 22.652344 0 22 0 Z M 28 0 C 27.351563 0 26.828125 0.207031 26.46875 0.59375 C 25.910156 1.195313 25.96875 1.976563 26 2.40625 C 26.277344 6.085938 25.980469 9.613281 25.4375 12.1875 C 26.074219 12.28125 26.664063 12.570313 27.125 13.03125 C 28.898438 14.804688 30.339844 15.03125 31.53125 15.03125 C 31.847656 15.03125 32.144531 15.015625 32.40625 15 L 32.53125 15 C 32.851563 14.984375 33.152344 14.96875 33.40625 14.96875 C 35.851563 14.96875 37.003906 16.449219 37.28125 17.84375 C 37.710938 20.003906 36.5 21.328125 35.84375 22.03125 C 35.726563 22.15625 35.59375 22.3125 35.4375 22.5 C 34.960938 25.496094 34.40625 29.078125 34.15625 31.25 C 33.925781 33.238281 34.480469 35.042969 35.75 36.46875 C 37.136719 38.023438 39.320313 39 41.46875 39 C 44.328125 39 48.5625 36.648438 48.5625 31.625 C 48.5625 30.480469 48.070313 28.65625 47.5625 26.71875 C 47.117188 25.015625 46.625 23.105469 46.625 22.15625 C 46.625 21.746094 46.660156 21.328125 46.71875 20.9375 C 48.28125 20.191406 49.40625 18.65625 49.8125 16.71875 C 50.113281 15.285156 49.917969 14.074219 49.25 13.46875 C 48.496094 12.789063 47.308594 12.75 46.59375 13.40625 C 45.105469 14.773438 42 17.625 42 22.6875 C 42 23.792969 42.347656 25.136719 42.71875 26.5625 C 43.105469 28.050781 43.5 29.582031 43.5 30.84375 C 43.5 31.203125 43.503906 31.835938 43.25 32.28125 C 43.148438 32.460938 42.839844 33 41.46875 33 C 41.449219 33 39.71875 32.785156 39.71875 31.625 C 39.71875 29.617188 41.613281 19.457031 42 17.53125 C 42.328125 15.910156 41.984375 14.382813 41.03125 13.21875 C 40.644531 12.746094 40.144531 12.355469 39.59375 12.03125 C 41.179688 11.59375 42.863281 10.605469 43.8125 7.84375 C 44.15625 6.84375 44.269531 4.871094 43.59375 3.75 C 43.210938 3.113281 42.679688 2.902344 42.3125 2.84375 C 42.261719 2.835938 42.144531 2.8125 42.09375 2.8125 C 40.90625 2.8125 40.515625 4.113281 40.28125 4.875 C 40.230469 5.03125 40.203125 5.160156 40.15625 5.28125 C 39.429688 7.125 38.546875 7.355469 37.09375 7.71875 C 36.558594 7.855469 35.945313 7.988281 35.3125 8.25 C 35.503906 6.71875 35.703125 5.984375 37.5 5.03125 C 37.554688 5.007813 37.65625 4.96875 37.75 4.9375 C 38.414063 4.703125 39.785156 4.203125 39.4375 3 C 39.207031 2.1875 38.25 1.3125 36.71875 1.3125 C 36.414063 1.3125 36.109375 1.339844 35.78125 1.40625 C 33.082031 1.96875 31.78125 3.421875 31.03125 5.15625 C 30.816406 3.929688 30.550781 2.777344 30.28125 2.03125 C 29.925781 1.046875 29.144531 0 28 0 Z M 25 14.15625 C 24.746094 14.15625 24.476563 14.242188 24.28125 14.4375 C 21.773438 16.945313 19.753906 17.25 18.4375 17.25 C 18.105469 17.25 17.792969 17.234375 17.53125 17.21875 C 17.289063 17.203125 17.09375 17.1875 16.90625 17.1875 C 15.785156 17.1875 15.34375 17.75 15.1875 18.21875 C 14.722656 19.613281 15.359375 20.53125 16.09375 21.625 C 17.257813 23.351563 19.226563 26.238281 20.09375 34.21875 C 20.882813 41.464844 23.464844 44 25 44 C 26.535156 44 29.09375 41.691406 29.875 34.59375 C 31.007813 24.28125 33.277344 21.832031 34.375 20.65625 C 34.957031 20.035156 35.574219 19.402344 35.34375 18.25 C 35.230469 17.667969 34.789063 16.96875 33.40625 16.96875 C 33.183594 16.96875 32.933594 16.984375 32.65625 17 C 31.09375 17.085938 28.585938 17.304688 25.71875 14.4375 C 25.523438 14.242188 25.253906 14.15625 25 14.15625 Z M 20.59375 20.0625 L 23.90625 22.3125 C 23.820313 22.398438 22.597656 23.566406 21.78125 23 C 20.960938 22.4375 20.59375 20.0625 20.59375 20.0625 Z M 29.34375 20.0625 C 29.34375 20.0625 29 22.4375 28.1875 23 C 27.375 23.5625 26.117188 22.398438 26.03125 22.3125 Z M 31.3125 38 C 30.015625 43.816406 27.328125 46 25 46 C 22.804688 46 20.082031 43.835938 18.71875 38.0625 C 17.8125 39.015625 17 40.214844 17 41.28125 C 17 43.480469 18.703125 44.738281 19.9375 45.65625 C 20.21875 45.863281 20.464844 46.054688 20.6875 46.25 C 20.992188 46.515625 21.3125 46.972656 21.65625 47.46875 C 22.4375 48.59375 23.421875 50 25 50 C 26.578125 50 27.5625 48.59375 28.34375 47.46875 C 28.6875 46.972656 29.007813 46.515625 29.3125 46.25 C 29.535156 46.058594 29.78125 45.863281 30.0625 45.65625 C 31.296875 44.738281 33 43.480469 33 41.28125 C 33 40.023438 32.34375 39 31.3125 38 Z"
  ></path>
</svg>
