<svg
  xmlns="http://www.w3.org/2000/svg"
  x="0px"
  y="0px"
  width="100"
  height="100"
  viewBox="0 0 64 64"
>
  <path
    d="M59.454,18.825c-1.569-1.663-3.816-1.332-5.069-0.961c-1.38-0.544-4.424-1.532-8.862-1.796	c-1.773-2.17-4.554-4.13-12.012-4.523l-0.244-0.46C33.135,10.835,29.915,5,19,5h-2.208l0.218,2.198	c0.026,0.264,0.037,0.575,0.05,0.921c0.02,0.526,0.056,1.164,0.131,1.849c1.58,0.383,3.014,0.846,4.324,1.376	c-0.241-0.749-0.348-1.521-0.401-2.256c3.849,0.333,6.104,1.545,7.342,2.532c-1.968,0.271-3.866,0.913-5.679,1.906l-0.029-0.035	C21.696,13.113,19.073,12.927,16,13l-0.003-0.01c-2.729,0.115-5.588,0.685-7.83,1.712L5.86,15.759l1.567,1.997	c0.168,0.214,0.398,0.551,0.683,0.963c1.384,2.003,2.924,4.109,4.659,5.642c-1.928,1.348-3.708,3.316-4.484,4.612l-1.656,2.774	l3.224,0.248c0.344,0.026,0.762,0.086,1.198,0.178c-1.853,1.598-3.054,3.461-3.246,3.768l-1.902,3.048L9.497,39	c0.186,0,0.468,0.011,0.807,0.038c-2.951,3.253-3.575,6.428-3.606,6.597l-0.472,2.697l2.725-0.353	c0.243-0.031,0.489-0.06,0.734-0.09c0.764-0.894,1.579-1.756,2.916-2.3c-0.606,0.958-0.993,1.746-1.221,2.41l-0.005,0	c-0.76,2.082-1.202,4.238-1.364,5.792l-0.31,2.969l7.972-2.345c-0.169-1.108-0.081-2.242,0.411-3.416	c0.471,1.284,0.929,2.209,1.378,2.89l0.011-0.003c1.11,1.797,3.441,4.526,7.895,6.011l2.453,0.812l0.175-2.58	c0.002-0.024,0.129-1.752,0.85-3.439c0.302-1.034,0.545-2.294,0.382-3.19c0.443,1.472,1.241,2.462,2.302,3.098	c1.44,0.248,3.155,0.304,4.966-0.161l2.312-0.591l-0.987-2.173c-0.704-1.549-1.213-3.458-1.19-4.338	c0.183,0.055,0.422,0.146,0.603,0.215c1.084,0.413,2.725,1.036,5.014,0.372c0.839-0.237,1.891,0.923,2.121,1.236l1.25,1.763	l1.661-1.382c0.12-0.1,2.94-2.481,3.682-6.141l0.132-0.653l-0.286-0.602c-1.074-2.264-3.449-3.325-6.249-3.949	C46.601,37.334,46.503,36.245,46,35c-0.733,1.338-1.677,2.299-2.129,2.717c-0.525-0.075-1.054-0.145-1.585-0.212	c0.135-0.603,0.214-1.259,0.214-2.006c-0.673,0.598-1.42,1.298-2.031,1.778c-0.187-0.024-0.376-0.049-0.566-0.075	c0.126-0.64,0.179-1.38,0.097-2.203c-0.879,0.791-1.905,1.414-2.601,1.79c-0.109-0.022-0.218-0.044-0.324-0.068	c0.219-0.745,0.52-1.771,0.425-2.722c-0.874,0.777-2.089,1.461-2.866,1.82c-0.179-0.134-0.314-0.277-0.388-0.434	c-0.103-0.219-0.321-1.12,1.253-3.597c0.569-0.987,1.252-1.582,2.028-1.769c0.167-0.04,0.347-0.055,0.533-0.06	c0,0.537-0.012,1.119-0.06,1.703c0.724-0.263,1.303-0.778,1.815-1.333c0.305,0.123,0.623,0.279,0.951,0.462	c-0.029,0.673-0.109,1.552-0.267,2.708c0.668-0.2,1.503-0.873,2.193-1.611c0.338,0.169,0.68,0.328,1.026,0.472	c-0.041,0.649-0.117,1.377-0.218,2.139c0.659-0.198,1.317-0.832,1.9-1.538c0.752,0.233,1.5,0.42,2.234,0.567	c0.101,0.838,0.165,2.154-0.075,3.891c1.38-0.483,2.578-2.252,3.257-3.45c2.431,0.193,4.221,0.037,4.375,0.022l0.863-0.083	l0.529-0.687c0.112-0.145,2.597-3.412,2.889-7.472C60.938,23.712,61.45,20.938,59.454,18.825z M36.5,22c-0.5-1.5-1.314-3.1-2.5-4	c3,0.215,6,0.953,8,2.5C40.72,21.364,38.251,22,36.5,22z"
  ></path>
</svg>
