<svg
  xmlns="http://www.w3.org/2000/svg"
  x="0px"
  y="0px"
  width="100"
  height="100"
  viewBox="0 0 50 50"
>
  <path
    d="M 12.0625 1.90625 C 11.953125 1.914063 11.824219 1.957031 11.71875 2 C 11.296875 2.171875 11.066406 2.582031 11.125 3.03125 C 11.191406 3.542969 11.28125 4.007813 11.375 4.4375 C 11.882813 4.765625 12.359375 5.140625 12.8125 5.53125 C 13.5 6.121094 14.355469 6.84375 14.9375 6.84375 C 15.011719 6.84375 15.113281 6.855469 15.3125 6.78125 C 17.058594 6.148438 18.632813 5.667969 20.0625 5.375 C 19.25 4.753906 18.386719 4.304688 17.78125 4.0625 C 17.070313 3.78125 16.386719 3.671875 15.71875 3.59375 C 14.550781 3.457031 13.703125 3.375 12.90625 2.3125 C 12.703125 2.039063 12.386719 1.886719 12.0625 1.90625 Z M 2.6875 3 C 2.570313 3 2.429688 3.019531 2.3125 3.0625 C 1.851563 3.234375 1.589844 3.707031 1.6875 4.1875 C 2.582031 8.628906 4.023438 10.367188 7.21875 10.84375 C 8.039063 10.964844 8.285156 11.332031 8.71875 11.96875 C 9.203125 12.679688 9.808594 13.574219 11.28125 14.0625 C 9.996094 14.78125 8.226563 15.65625 6.625 16.40625 C 6.316406 16.550781 6.109375 16.851563 6.0625 17.1875 C 6.015625 17.523438 6.148438 17.871094 6.40625 18.09375 C 6.789063 18.425781 7.726563 19.203125 8.75 19.78125 C 7.074219 20.828125 5.242188 21.769531 5.21875 21.78125 C 4.886719 21.953125 4.6875 22.285156 4.6875 22.65625 C 4.6875 23.027344 4.886719 23.390625 5.21875 23.5625 C 5.382813 23.648438 6.292969 24.105469 7.34375 24.5 C 5.476563 25.726563 3.835938 26.675781 3.8125 26.6875 C 3.523438 26.851563 3.335938 27.136719 3.3125 27.46875 C 3.289063 27.800781 3.425781 28.109375 3.6875 28.3125 C 3.894531 28.476563 4.609375 29.023438 5.4375 29.5 C 3.738281 30.6875 2.054688 31.644531 2.03125 31.65625 C 1.722656 31.824219 1.511719 32.148438 1.5 32.5 C 1.488281 32.851563 1.671875 33.183594 1.96875 33.375 C 2.082031 33.445313 2.664063 33.828125 3.34375 34.21875 C 1.863281 35.234375 0.484375 36.253906 0.40625 36.3125 C 0.191406 36.472656 0.0351563 36.703125 0 36.96875 C -0.0351563 37.234375 0.0546875 37.507813 0.21875 37.71875 C 0.328125 37.859375 2.910156 41.1875 4.6875 42.84375 C 9.511719 47.339844 17.445313 48 21.75 48 C 23.792969 48 25.132813 47.847656 25.1875 47.84375 C 25.570313 47.800781 25.902344 47.550781 26.03125 47.1875 C 26.160156 46.824219 26.054688 46.425781 25.78125 46.15625 L 24.1875 44.5625 L 25.75 43.71875 C 26.015625 43.574219 26.222656 43.328125 26.28125 43.03125 C 26.339844 42.734375 26.253906 42.449219 26.0625 42.21875 L 24.21875 40.03125 L 25.71875 38.90625 C 25.949219 38.730469 26.105469 38.445313 26.125 38.15625 C 26.144531 37.871094 26.046875 37.609375 25.84375 37.40625 C 25.367188 36.925781 24.097656 35.355469 24.0625 34 C 24.03125 32.71875 24.417969 31.578125 24.65625 31.4375 C 24.804688 31.4375 24.820313 31.472656 24.84375 31.5 C 25.019531 31.703125 25.164063 32.386719 25.03125 33.375 C 24.976563 33.789063 25.191406 34.179688 25.5625 34.375 C 25.933594 34.570313 26.378906 34.53125 26.6875 34.25 C 28.398438 32.703125 28.855469 31.007813 29.1875 29.78125 C 29.332031 29.257813 29.457031 28.78125 29.625 28.5625 C 29.746094 28.742188 29.972656 29.136719 30.09375 29.90625 C 30.148438 30.246094 30.371094 30.550781 30.6875 30.6875 C 31.003906 30.824219 31.34375 30.789063 31.625 30.59375 C 32.859375 29.742188 33.464844 28.617188 33.9375 27.71875 C 34.546875 26.554688 34.859375 25.9375 36.15625 25.90625 C 36.382813 26.1875 36.65625 27.242188 36.53125 28.375 C 36.484375 28.789063 36.722656 29.1875 37.09375 29.375 C 37.464844 29.5625 37.910156 29.503906 38.21875 29.21875 C 39.128906 28.375 41.125 24.652344 41.125 22.65625 C 41.125 22.5 41.101563 22.359375 41.03125 22.21875 C 41.015625 22.191406 40.886719 21.957031 40.625 21.65625 C 40.488281 21.53125 40.328125 21.414063 40.125 21.28125 C 40.121094 20.484375 40.058594 19.550781 39.8125 19.0625 C 39.554688 19.632813 39.058594 20.234375 38.65625 20.6875 C 38.222656 20.585938 37.710938 20.5 37.125 20.5 C 37.035156 20.5 36.914063 20.523438 36.8125 20.53125 C 36.695313 19.832031 36.503906 18.945313 36.09375 18.59375 C 35.917969 19.414063 35.09375 20.71875 35.09375 20.71875 C 35.09375 20.71875 35.0625 20.765625 35.0625 20.8125 C 34.78125 20.882813 34.457031 21.011719 34.15625 21.09375 C 33.828125 20.429688 33.1875 19.222656 32.59375 18.96875 C 32.683594 19.878906 32.25 21.5 32.25 21.5 C 32.25 21.5 32.242188 21.5625 32.28125 21.625 C 31.941406 21.726563 31.621094 21.839844 31.28125 21.9375 C 30.953125 21.191406 30.355469 20.0625 29.78125 19.78125 C 29.824219 20.753906 29.3125 22.4375 29.3125 22.4375 C 29.3125 22.4375 29.3125 22.460938 29.3125 22.46875 C 29.035156 22.535156 28.757813 22.574219 28.5 22.625 C 28.25 21.886719 27.777344 20.613281 27.21875 20.28125 C 27.183594 21.222656 26.53125 22.84375 26.53125 22.84375 C 26.53125 22.84375 26.535156 22.867188 26.53125 22.875 C 26.25 22.894531 25.960938 22.933594 25.6875 22.9375 C 25.691406 22.15625 25.621094 20.886719 25.21875 20.40625 C 24.878906 21.277344 23.75 22.5625 23.75 22.5625 C 23.75 22.5625 23.71875 22.625 23.71875 22.6875 C 23.003906 22.441406 22.457031 21.976563 22.21875 21.15625 C 22.054688 20.753906 22 20.320313 22 19.875 C 22 19.785156 21.996094 19.707031 22 19.625 C 22 19.601563 22 19.554688 22 19.53125 C 22 18.683594 22.257813 18.058594 22.71875 17.59375 C 23.085938 18.03125 23.644531 18.726563 23.90625 19.375 C 24.316406 18.875 24.355469 17.566406 24.34375 16.75 C 24.671875 16.65625 25.03125 16.558594 25.40625 16.5 C 25.40625 16.5 26.160156 18.125 26.25 19.09375 C 26.894531 18.660156 27.402344 16.980469 27.5625 16.34375 C 27.796875 16.335938 28.039063 16.3125 28.28125 16.3125 C 28.191406 16.398438 28.21875 16.5 28.21875 16.5 C 28.21875 16.5 28.710938 18.21875 28.625 19.1875 C 29.445313 18.828125 30.316406 16.808594 30.4375 16.53125 C 30.601563 16.5625 30.769531 16.589844 30.9375 16.625 C 30.9375 16.625 31.292969 18.378906 31.15625 19.34375 C 31.820313 19.09375 32.605469 17.742188 32.96875 17.0625 C 33.238281 17.121094 33.503906 17.164063 33.78125 17.21875 C 33.890625 17.675781 34.136719 18.746094 34.0625 19.53125 C 34.636719 19.285156 35.253906 18.234375 35.625 17.5 C 35.960938 17.53125 36.316406 17.558594 36.65625 17.5625 C 36.949219 18.078125 37.363281 18.820313 37.5 19.46875 C 37.898438 19.125 38.160156 18.207031 38.3125 17.4375 C 38.75 17.363281 39.195313 17.21875 39.625 17.0625 C 40.074219 17.464844 40.605469 17.972656 40.90625 18.46875 C 41.160156 18.035156 41.097656 17.160156 41 16.40625 C 41.621094 16.019531 42.230469 15.550781 42.8125 14.90625 C 42.996094 14.65625 43.058594 14.332031 42.96875 14.03125 C 42.683594 13.070313 41.09375 10.921875 38.375 10.96875 C 36.324219 9.445313 34.523438 8.875 32.09375 8.875 C 31.613281 8.875 31.097656 8.890625 30.53125 8.9375 C 28.707031 7.007813 26.28125 7 23.5 7 C 21.5 7 19.054688 7.546875 16 8.65625 C 15.628906 8.792969 15.292969 8.84375 14.9375 8.84375 C 13.617188 8.84375 12.488281 7.878906 11.5 7.03125 C 10.984375 6.589844 10.496094 6.195313 10 5.9375 C 9.332031 5.589844 8.53125 5.535156 7.6875 5.5 C 6.09375 5.429688 4.585938 5.359375 3.53125 3.5 C 3.347656 3.179688 3.039063 3 2.6875 3 Z M 24.71875 11.125 C 25.03125 11.109375 25.421875 11.128906 25.96875 11.15625 C 26.902344 11.203125 27.375 12.53125 27.375 12.53125 C 24.707031 14.386719 22.742188 12.304688 22.21875 11.40625 C 23.609375 11.382813 23.785156 11.175781 24.71875 11.125 Z M 46.40625 11.125 C 46.40625 11.125 46.824219 12.042969 47 13 C 47.085938 13.472656 47.128906 13.949219 47 14.3125 C 47 14.3125 46.097656 13.171875 44.75 12.9375 C 48.757813 18.023438 38.0625 19.03125 38.0625 19.03125 L 43.03125 19.03125 C 47.878906 19.03125 49 16.960938 49 15.4375 C 49 12.695313 46.40625 11.125 46.40625 11.125 Z"
  ></path>
</svg>
