<svg
  xmlns="http://www.w3.org/2000/svg"
  x="0px"
  y="0px"
  width="100"
  height="100"
  viewBox="0 0 50 50"
>
  <path
    d="M 17.96875 2.03125 C 13.917969 2.035156 10.632813 3.917969 10.4375 4.03125 L 10.28125 4.125 C 10.03125 4.347656 4.210938 9.644531 5.6875 16.65625 L 5.71875 16.84375 L 5.84375 17.03125 C 5.878906 17.082031 5.933594 17.105469 5.96875 17.15625 L 8.8125 18.1875 C 9.847656 16.554688 12.082031 13.859375 15.71875 13.46875 L 15.9375 13.46875 L 16.125 13.53125 C 16.367188 13.609375 16.609375 13.703125 16.84375 13.8125 C 16.8125 13.554688 16.8125 13.289063 16.8125 13.03125 L 16.8125 12.8125 L 16.90625 12.625 C 18.550781 8.953125 22.273438 7.769531 24 7.40625 L 24 3.71875 L 23.9375 3.625 L 23.75 3.53125 C 21.808594 2.414063 19.808594 2.03125 17.96875 2.03125 Z M 32.03125 2.03125 C 30.191406 2.03125 28.191406 2.414063 26.25 3.53125 L 26.0625 3.625 L 26 3.71875 L 26 7.40625 C 27.726563 7.773438 31.453125 8.953125 33.09375 12.625 L 33.1875 12.8125 L 33.1875 13.03125 C 33.1875 13.289063 33.1875 13.554688 33.15625 13.8125 C 33.390625 13.703125 33.632813 13.609375 33.875 13.53125 L 34.0625 13.46875 L 34.28125 13.46875 C 37.824219 13.847656 40.023438 16.421875 41.09375 18.0625 L 44.21875 16.90625 L 44.28125 16.84375 L 44.3125 16.65625 C 45.789063 9.644531 39.964844 4.347656 39.71875 4.125 L 39.5625 4.03125 C 39.363281 3.914063 36.082031 2.035156 32.03125 2.03125 Z M 25 9.25 C 24.328125 9.347656 20.390625 10.035156 18.8125 13.25 C 18.484375 14.011719 18.542969 14.503906 18.84375 14.8125 L 19.3125 15.4375 C 21.851563 15.644531 22.046875 18.265625 20.9375 19.21875 C 19.640625 20.328125 17.03125 19.144531 17.6875 16.59375 L 17.28125 16.03125 L 17.0625 15.78125 C 16.773438 15.5625 16.269531 15.488281 15.71875 15.5 C 12.179688 16.007813 10.304688 19.539063 10 20.15625 C 9.882813 20.828125 9.308594 24.789063 11.875 27.28125 C 12.132813 27.597656 12.625 27.894531 13.09375 27.875 L 14.09375 27.5625 C 15.046875 25.082031 17.75 25.40625 18.40625 27.0625 C 19.050781 28.695313 17.011719 30.746094 14.8125 29.4375 L 14 29.6875 C 13.550781 29.75 13.207031 30.335938 13.0625 30.90625 C 12.445313 34.453125 15.226563 37.308594 15.71875 37.78125 C 16.128906 38 17.972656 38.90625 20.09375 38.90625 C 21.191406 38.90625 22.195313 38.664063 23.09375 38.1875 C 23.628906 37.925781 24.070313 37.503906 24 37.0625 L 24 36.125 C 21.976563 34.445313 22.839844 32 25 32 C 27.160156 32 28.023438 34.449219 26 36.125 L 26 37.0625 C 25.898438 37.503906 26.363281 37.878906 26.90625 38.1875 C 27.804688 38.664063 28.808594 38.90625 29.90625 38.90625 C 32.039063 38.90625 33.867188 38.003906 34.28125 37.78125 C 34.765625 37.308594 37.550781 34.433594 36.9375 30.90625 C 36.804688 30.367188 36.488281 29.683594 36.03125 29.625 C 36.027344 29.625 36.003906 29.625 36 29.625 L 35.28125 29.40625 C 33.042969 30.792969 30.738281 28.507813 31.71875 26.625 C 32.59375 24.941406 34.921875 25.035156 35.875 27.46875 L 36.34375 27.625 C 36.402344 27.660156 36.46875 27.664063 36.53125 27.6875 L 36.84375 27.78125 C 37.292969 27.828125 37.785156 27.636719 38.125 27.28125 C 40.6875 24.789063 40.117188 20.835938 40 20.15625 C 39.699219 19.542969 37.824219 16.007813 34.28125 15.5 C 33.578125 15.421875 32.9375 15.617188 32.75 16.03125 L 32.3125 16.59375 C 32.964844 19.140625 30.28125 20.253906 29.09375 19.25 C 27.808594 18.160156 28.136719 15.632813 30.6875 15.4375 L 31.0625 14.9375 C 31.417969 14.636719 31.472656 13.867188 31.1875 13.25 C 29.605469 10.019531 25.679688 9.34375 25 9.25 Z M 44.78125 18.84375 L 42 19.84375 C 42.191406 20.949219 42.78125 25.769531 39.3125 28.90625 L 39.125 29.03125 L 38.9375 29.125 C 38.664063 29.214844 38.414063 29.269531 38.1875 29.3125 C 38.363281 29.5 38.539063 29.699219 38.6875 29.90625 L 38.8125 30.09375 L 38.84375 30.28125 C 39.613281 33.921875 37.699219 36.910156 36.46875 38.375 L 37.875 40.25 L 37.96875 40.28125 L 38.1875 40.25 C 45.3125 39.488281 48.523438 32.335938 48.65625 32.03125 L 48.71875 31.84375 C 48.789063 31.519531 50.410156 23.835938 45.09375 19.03125 L 44.9375 18.875 Z M 5 18.9375 L 4.90625 19.03125 C -0.410156 23.835938 1.210938 31.519531 1.28125 31.84375 L 1.34375 32.03125 C 1.476563 32.335938 4.6875 39.488281 11.8125 40.25 L 12.03125 40.28125 L 12.15625 40.25 L 13.5625 38.40625 C 12.335938 36.949219 10.386719 33.9375 11.15625 30.28125 L 11.1875 30.09375 L 11.3125 29.90625 C 11.460938 29.699219 11.636719 29.5 11.8125 29.3125 C 11.585938 29.269531 11.335938 29.214844 11.0625 29.125 L 10.84375 29.0625 L 10.6875 28.90625 C 7.355469 25.894531 7.792969 21.339844 8 20 Z M 25 22 C 26.65625 22 28 23.34375 28 25 C 28 26.65625 26.65625 28 25 28 C 23.34375 28 22 26.65625 22 25 C 22 23.34375 23.34375 22 25 22 Z M 25 38.90625 C 24.875 39.132813 24.742188 39.324219 24.59375 39.53125 L 24.46875 39.71875 L 24.28125 39.8125 C 23.027344 40.535156 21.621094 40.90625 20.09375 40.90625 C 17.847656 40.90625 15.933594 40.128906 15.09375 39.71875 L 13.75 41.46875 L 13.75 41.53125 L 13.84375 41.71875 C 16.769531 48.257813 24.574219 49.125 24.90625 49.15625 L 25.09375 49.15625 C 25.425781 49.125 33.230469 48.257813 36.15625 41.71875 L 36.25 41.53125 L 36.25 41.40625 L 34.9375 39.6875 C 34.117188 40.089844 32.179688 40.90625 29.90625 40.90625 C 28.378906 40.90625 26.972656 40.535156 25.71875 39.8125 L 25.53125 39.71875 L 25.40625 39.53125 C 25.253906 39.324219 25.125 39.132813 25 38.90625 Z"
  ></path>
</svg>
